<?xml version="1.0" encoding="UTF-8" standalone="no"?><svg xmlns="http://www.w3.org/2000/svg" xmlns:xlink="http://www.w3.org/1999/xlink" contentScriptType="application/ecmascript" contentStyleType="text/css" height="271px" preserveAspectRatio="none" style="width:852px;height:271px;background:#000000;" version="1.1" viewBox="0 0 852 271" width="852px" zoomAndPan="magnify"><defs><filter height="300%" id="faqh646ukwcrs" width="300%" x="-1" y="-1"><feGaussianBlur result="blurOut" stdDeviation="2.0"/><feColorMatrix in="blurOut" result="blurOut2" type="matrix" values="0 0 0 0 0 0 0 0 0 0 0 0 0 0 0 0 0 0 .4 0"/><feOffset dx="4.0" dy="4.0" in="blurOut2" result="blurOut3"/><feBlend in="SourceGraphic" in2="blurOut3" mode="normal"/></filter></defs><g><!--MD5=[b3179ce4f793cc951a1964cbf548eaa1]
cluster c--><rect fill="#565656" filter="url(#faqh646ukwcrs)" height="130" style="stroke: #FFFFFF; stroke-width: 1.5;" width="313" x="22" y="100.5"/><text fill="#FFFFFF" font-family="sans-serif" font-size="14" font-weight="bold" lengthAdjust="spacingAndGlyphs" textLength="238" x="59.5" y="115.4951">Send: scanner/+/cmd/director</text><text fill="#FFFFFF" font-family="sans-serif" font-size="14" font-weight="bold" lengthAdjust="spacingAndGlyphs" textLength="201" x="78" y="131.792">Consume: scanner/+/info</text><!--MD5=[8efdf175f43f45650fcf6d8558b13c8f]
cluster e--><path d="M466.5546,75.4766 C474.6071,61.8755 482.2568,62.6963 491.2882,74.5245 C498.3221,62.2329 507.1769,62.2272 515.9547,72.6288 C523.7267,61.4258 534.9698,60.3573 541.2027,74.1814 C548.9445,62.8687 559.1201,58.7603 568.1437,72.8203 C572.237,61.6837 583.6955,59.0423 591.7501,68.2161 C600.1669,57.1552 607.3521,57.9804 614.5183,69.4782 C622.8647,57.0072 633.2795,56.7794 642.9595,67.8684 C651.121,59.1034 659.3732,56.922 665.6414,69.8483 C674.523,58.2404 683.7803,58.0629 690.5422,71.9209 C697.343,59.367 709.665,59.91 716.3737,72.0175 C725.6666,60.1304 734.9207,62.1402 741.9706,74.3958 C749.9157,64.5396 759.2502,63.2077 765.6846,75.979 C772.2739,62.0917 782.8295,63.8211 791.4453,73.7908 C802.7804,59.428 817.5112,63.196 821,81 C823.6935,81.703 823.6555,83.5766 822.0831,85.3434 C833.5399,91.0668 834.0573,103.3606 823.4652,110.3048 C833.2321,115.8765 835.531,125.3023 824.5791,131.9407 C836.1096,138.9 835.8799,148.1511 825.7509,156.1584 C840.0055,165.1526 837.7476,176.7205 825.169,185.1766 C834.156,192.617 833.6473,200.8291 823.4956,206.7875 C833.2854,220.6284 831.5965,232.4906 814,238 C815.7017,238.812 816.1226,240.5443 814.2294,241.5862 C808.9982,251.9127 799.8394,251.7717 793.3195,242.997 C786.6035,254.953 775.4178,255.0744 767.9411,243.829 C759.5694,257.3296 747.8202,253.5574 742.0255,241.242 C737.3217,255.4039 725.372,257.4299 716.6783,245.0528 C709.7114,258.107 700.0527,255.7679 692.9711,245.1678 C685.5216,259.2933 672.6948,259.126 665.7818,244.6577 C658.5045,255.8372 648.245,256.8702 639.4794,246.4718 C629.2616,258.0146 620.4225,255.6446 615.3534,241.6144 C608.627,251.6387 601.7512,252.4442 593.4415,243.4374 C583.9362,256.9601 570.8149,255.487 564.2425,240.4398 C559.5665,250.7947 549.9859,254.5229 542.2951,243.5409 C534.9065,257.2345 522.5242,255.9859 516.2343,242.4878 C508.2844,254.0066 497.8029,253.0187 489.9243,242.4031 C473.7378,252.3664 462.2085,252.7336 457,231 C459.0357,231.2603 459.7566,232.8021 458.7721,234.5641 C446.2508,229.6801 443.2878,219.5693 454.3845,210.3972 C441.8575,202.7212 440.2947,193.0019 453.022,184.0213 C439.9448,178.3618 437.3724,168.7329 446.246,157.4712 C437.2575,147.859 438.7476,138.5303 450.466,132.404 C442.171,122.9273 443.0033,114.3423 456.1377,110.3856 C440.3664,97.0526 442.1862,79.2115 464,74 C465.3215,73.2989 466.4855,74.0109 466.5546,75.4766 " fill="#565656" style="stroke: #FFFFFF; stroke-width: 1.5;"/><text fill="#FFFFFF" font-family="sans-serif" font-size="14" font-weight="bold" lengthAdjust="spacingAndGlyphs" textLength="65" x="606.5" y="91.9951">Eulabeia</text><text fill="#FFFFFF" font-family="sans-serif" font-size="14" font-weight="bold" lengthAdjust="spacingAndGlyphs" textLength="135" x="571.5" y="108.292">Topic: scanner/#</text><!--MD5=[57cfc2015c9d3964671bcbff5cacbb7f]
cluster s--><rect fill="#565656" filter="url(#faqh646ukwcrs)" height="97" style="stroke: #FFFFFF; stroke-width: 1.5;" width="225" x="580" y="125"/><text fill="#FFFFFF" font-family="sans-serif" font-size="14" font-weight="bold" lengthAdjust="spacingAndGlyphs" textLength="65" x="660" y="139.9951">Sensors</text><!--MD5=[0aac872f208ab6f5f7887aae079fb447]
entity c1--><polygon fill="#070707" filter="url(#faqh646ukwcrs)" points="195.5,161.5,205.5,151.5,318.5,151.5,318.5,204.0938,308.5,214.0938,195.5,214.0938,195.5,161.5" style="stroke: #FFFFFF; stroke-width: 1.5;"/><line style="stroke: #FFFFFF; stroke-width: 1.5;" x1="308.5" x2="317.5" y1="161.5" y2="152.5"/><line style="stroke: #FFFFFF; stroke-width: 1.5;" x1="195.5" x2="308.5" y1="161.5" y2="161.5"/><line style="stroke: #FFFFFF; stroke-width: 1.5;" x1="308.5" x2="308.5" y1="161.5" y2="214.0938"/><text fill="#FFFFFF" font-family="sans-serif" font-size="14" lengthAdjust="spacingAndGlyphs" textLength="52" x="210.5" y="184.4951">Client 1</text><text fill="#FFFFFF" font-family="sans-serif" font-size="14" lengthAdjust="spacingAndGlyphs" textLength="83" x="210.5" y="200.792">(e.g. GVMD)</text><!--MD5=[3d2111c8a0a2d14b8769ddc11704380e]
entity c2--><polygon fill="#070707" filter="url(#faqh646ukwcrs)" points="38,161.5,48,151.5,160,151.5,160,204.0938,150,214.0938,38,214.0938,38,161.5" style="stroke: #FFFFFF; stroke-width: 1.5;"/><line style="stroke: #FFFFFF; stroke-width: 1.5;" x1="150" x2="159" y1="161.5" y2="152.5"/><line style="stroke: #FFFFFF; stroke-width: 1.5;" x1="38" x2="150" y1="161.5" y2="161.5"/><line style="stroke: #FFFFFF; stroke-width: 1.5;" x1="150" x2="150" y1="161.5" y2="214.0938"/><text fill="#FFFFFF" font-family="sans-serif" font-size="14" lengthAdjust="spacingAndGlyphs" textLength="52" x="53" y="184.4951">Client 2</text><text fill="#FFFFFF" font-family="sans-serif" font-size="14" lengthAdjust="spacingAndGlyphs" textLength="82" x="53" y="200.792">(e.g. report)</text><!--MD5=[011db1d27274c86691871bc51b12beb8]
entity d--><polygon fill="#070707" filter="url(#faqh646ukwcrs)" points="465.5,170,475.5,160,560.5,160,560.5,196.2969,550.5,206.2969,465.5,206.2969,465.5,170" style="stroke: #FFFFFF; stroke-width: 1.5;"/><line style="stroke: #FFFFFF; stroke-width: 1.5;" x1="550.5" x2="559.5" y1="170" y2="161"/><line style="stroke: #FFFFFF; stroke-width: 1.5;" x1="465.5" x2="550.5" y1="170" y2="170"/><line style="stroke: #FFFFFF; stroke-width: 1.5;" x1="550.5" x2="550.5" y1="170" y2="206.2969"/><text fill="#FFFFFF" font-family="sans-serif" font-size="14" lengthAdjust="spacingAndGlyphs" textLength="55" x="480.5" y="192.9951">Director</text><!--MD5=[1f0e52a1457a111061ef2aae8e5ec9c5]
entity s1--><polygon fill="#070707" filter="url(#faqh646ukwcrs)" points="723.5,170,733.5,160,788.5,160,788.5,196.2969,778.5,206.2969,723.5,206.2969,723.5,170" style="stroke: #FFFFFF; stroke-width: 1.5;"/><line style="stroke: #FFFFFF; stroke-width: 1.5;" x1="778.5" x2="787.5" y1="170" y2="161"/><line style="stroke: #FFFFFF; stroke-width: 1.5;" x1="723.5" x2="778.5" y1="170" y2="170"/><line style="stroke: #FFFFFF; stroke-width: 1.5;" x1="778.5" x2="778.5" y1="170" y2="206.2969"/><text fill="#FFFFFF" font-family="sans-serif" font-size="14" lengthAdjust="spacingAndGlyphs" textLength="25" x="738.5" y="192.9951">first</text><!--MD5=[dc66687c89eac77dba91b7320324a287]
entity s2--><polygon fill="#070707" filter="url(#faqh646ukwcrs)" points="596,170,606,160,688,160,688,196.2969,678,206.2969,596,206.2969,596,170" style="stroke: #FFFFFF; stroke-width: 1.5;"/><line style="stroke: #FFFFFF; stroke-width: 1.5;" x1="678" x2="687" y1="170" y2="161"/><line style="stroke: #FFFFFF; stroke-width: 1.5;" x1="596" x2="678" y1="170" y2="170"/><line style="stroke: #FFFFFF; stroke-width: 1.5;" x1="678" x2="678" y1="170" y2="206.2969"/><text fill="#FFFFFF" font-family="sans-serif" font-size="14" lengthAdjust="spacingAndGlyphs" textLength="52" x="611" y="192.9951">second</text><!--MD5=[1e0e2dbac2f3cca3269c18ad1edf5798]
entity q1--><path d="M358.5,170 L425.5,170 C430.5,170 430.5,183.1484 430.5,183.1484 C430.5,183.1484 430.5,196.2969 425.5,196.2969 L358.5,196.2969 C353.5,196.2969 353.5,183.1484 353.5,183.1484 C353.5,183.1484 353.5,170 358.5,170 " fill="#070707" filter="url(#faqh646ukwcrs)" style="stroke: #C7C7C7; stroke-width: 1.5;"/><path d="M425.5,170 C420.5,170 420.5,183.1484 420.5,183.1484 C420.5,196.2969 425.5,196.2969 425.5,196.2969 " fill="none" style="stroke: #C7C7C7; stroke-width: 1.5;"/><text fill="#FFFFFF" font-family="sans-serif" font-size="14" lengthAdjust="spacingAndGlyphs" textLength="57" x="358.5" y="187.9951">MQTTv5</text><!--MD5=[dc6898ca1c1998f23d00284d44bf1e24]
link c1 to q1--><path d="M323.84,183 C331.99,183 340.13,183 348.27,183 " fill="none" id="c1-q1" style="stroke: #C7C7C7; stroke-width: 1.0;"/><polygon fill="#C7C7C7" points="353.35,183,344.35,179,348.35,183,344.35,187,353.35,183" style="stroke: #C7C7C7; stroke-width: 1.0;"/><polygon fill="#C7C7C7" points="318.7,183,327.7,187,323.7,183,327.7,179,318.7,183" style="stroke: #C7C7C7; stroke-width: 1.0;"/><!--MD5=[ea8b8fadfd6145929578dd5d008a32b9]
link c2 to q1--><path d="M110.03,146.55 C123.5,109.19 150.28,53.11 195.5,28 C242.9,1.67 270.48,0.99 317.5,28 C367.39,56.65 384.38,129.99 389.74,164.51 " fill="none" id="c2-q1" style="stroke: #C7C7C7; stroke-width: 1.0;"/><polygon fill="#C7C7C7" points="390.5,169.7,393.1488,160.214,389.7729,164.7531,385.2338,161.3773,390.5,169.7" style="stroke: #C7C7C7; stroke-width: 1.0;"/><polygon fill="#C7C7C7" points="108.29,151.46,115.0675,144.314,109.9608,146.7474,107.5274,141.6407,108.29,151.46" style="stroke: #C7C7C7; stroke-width: 1.0;"/><!--MD5=[b71b636678550c136431265d003a3f66]
link q1 to d--><path d="M435.91,183 C444.06,183 452.22,183 460.38,183 " fill="none" id="q1-d" style="stroke: #C7C7C7; stroke-width: 1.0;"/><polygon fill="#C7C7C7" points="465.45,183,456.45,179,460.45,183,456.45,187,465.45,183" style="stroke: #C7C7C7; stroke-width: 1.0;"/><polygon fill="#C7C7C7" points="430.76,183,439.76,187,435.76,183,439.76,179,430.76,183" style="stroke: #C7C7C7; stroke-width: 1.0;"/><!--MD5=[da34cd71e7fd75ba02cf11ffdd185254]
link q1 to s1--><path d="M394.26,164.51 C399.62,129.99 416.61,56.65 466.5,28 C509.28,3.43 645.72,3.43 688.5,28 C733.26,53.71 748.38,117.23 753.45,154.49 " fill="none" id="q1-s1" style="stroke: #C7C7C7; stroke-width: 1.0;"/><polygon fill="#C7C7C7" points="754.13,159.79,756.9393,150.3503,753.487,154.8315,749.0058,151.3792,754.13,159.79" style="stroke: #C7C7C7; stroke-width: 1.0;"/><polygon fill="#C7C7C7" points="393.5,169.7,398.7662,161.3773,394.2271,164.7531,390.8512,160.214,393.5,169.7" style="stroke: #C7C7C7; stroke-width: 1.0;"/><!--MD5=[64e755adb47a7b7f36401e497fd8744d]
link q1 to s2--><path d="M394.26,164.51 C399.62,129.99 416.61,56.65 466.5,28 C508.12,4.09 532.88,4.09 574.5,28 C619.26,53.71 634.38,117.23 639.45,154.49 " fill="none" id="q1-s2" style="stroke: #C7C7C7; stroke-width: 1.0;"/><polygon fill="#C7C7C7" points="640.13,159.79,642.9393,150.3503,639.487,154.8315,635.0058,151.3792,640.13,159.79" style="stroke: #C7C7C7; stroke-width: 1.0;"/><polygon fill="#C7C7C7" points="393.5,169.7,398.7662,161.3773,394.2271,164.7531,390.8512,160.214,393.5,169.7" style="stroke: #C7C7C7; stroke-width: 1.0;"/><!--MD5=[7e39ad45bde1f5d590331eceed1c6c38]
@startuml relationship
skinparam monochrome reverse
skinparam cloud {
    BackgroundColor darkgrey
}
skinparam rectangle {
    BackgroundColor darkgrey
}
rectangle "Send: scanner/+/cmd/director\nConsume: scanner/+/info" as c{
    node "Client 1 \n (e.g. GVMD)" as c1
    node "Client 2 \n (e.g. report)" as c2
}
    queue "MQTTv5" as q1 
cloud "Eulabeia\nTopic: scanner/#" as e {
    node "Director" as d
    rectangle "Sensors" as s {
        node "first" as s1
        node "second" as s2
    }
}
c1 <-> q1
c2 <-> q1
q1 <-> d
q1 <-> s1
q1 <-> s2
@enduml

PlantUML version 1.2020.02(Sun Mar 01 11:22:07 CET 2020)
(GPL source distribution)
Java Runtime: OpenJDK Runtime Environment
JVM: OpenJDK 64-Bit Server VM
Java Version: 11.0.11+9-Ubuntu-0ubuntu2
Operating System: Linux
Default Encoding: UTF-8
Language: en
Country: US
--></g></svg>